<svg width="75" height="103" viewBox="0 0 75 103" fill="none" xmlns="http://www.w3.org/2000/svg">
<g clip-path="url(#clip0_1_11507)">
<g clip-path="url(#clip1_1_11507)">
<rect opacity="0.1" x="0.201172" y="18.416" width="70" height="70" rx="35" fill="white"/>
</g>
<path d="M51.1583 46.2979C52.6517 45.1779 53.9958 43.8338 55.0412 42.2657C53.6971 42.8631 52.1291 43.3111 50.561 43.4605C52.2037 42.4898 53.3985 40.9963 53.9958 39.1296C52.5024 40.0256 50.785 40.6977 49.0676 41.071C47.5742 39.5029 45.5581 38.6069 43.3179 38.6069C38.9871 38.6069 35.4776 42.1164 35.4776 46.4473C35.4776 47.0447 35.5522 47.642 35.7016 48.2394C29.2052 47.866 23.3809 44.7299 19.4981 40.0256C18.826 41.1457 18.4527 42.4898 18.4527 43.9832C18.4527 46.6713 19.7968 49.0608 21.9622 50.4795C20.6928 50.4048 19.4234 50.1061 18.378 49.5088V49.5834C18.378 53.3916 21.0662 56.5278 24.6503 57.2745C24.053 57.4238 23.3063 57.5732 22.6342 57.5732C22.1115 57.5732 21.6635 57.4985 21.1408 57.4238C22.1115 60.56 25.0237 62.8001 28.4585 62.8748C25.7704 64.9656 22.4102 66.2349 18.7514 66.2349C18.0793 66.2349 17.482 66.1603 16.8846 66.0856C20.3195 68.3257 24.4263 69.5951 28.9066 69.5951C43.3179 69.5951 51.1583 57.7225 51.1583 47.3433C51.1583 46.97 51.1583 46.6713 51.1583 46.2979Z" fill="white"/>
</g>
<defs>
<clipPath id="clip0_1_11507">
<rect width="74.3253" height="102.381" fill="white" transform="translate(0.200928 0.599609)"/>
</clipPath>
<clipPath id="clip1_1_11507">
<rect width="74.3253" height="71.2284" fill="white" transform="translate(0.201172 18.416)"/>
</clipPath>
</defs>
</svg>
